{
    "asset" : {
        "generator" : "Khronos glTF Blender I/O v3.2.40",
        "version" : "2.0"
    },
    "scene" : 0,
    "scenes" : [
        {
            "name" : "Scene",
            "nodes" : [
                0,
                1
            ]
        }
    ],
    "nodes" : [
        {
            "mesh" : 0,
            "name" : "Carrier_remesh (Copy)",
            "rotation" : [
                0,
                0.7071068286895752,
                0,
                0.7071067094802856
            ]
        },
        {
            "mesh" : 1,
            "name" : "Drug",
            "rotation" : [
                -0.12629278004169464,
                0,
                0,
                0.9919930100440979
            ],
            "translation" : [
                -35.5676155090332,
                -6.00844144821167,
                14.971392631530762
            ]
        }
    ],
    "materials" : [
        {
            "name" : "Material.001",
            "pbrMetallicRoughness" : {}
        },
        {
            "name" : "Material.003",
            "pbrMetallicRoughness" : {}
        }
    ],
    "meshes" : [
        {
            "name" : "Carrier_remesh (Copy)",
            "primitives" : [
                {
                    "attributes" : {
                        "POSITION" : 0,
                        "NORMAL" : 1,
                        "TEXCOORD_0" : 2
                    },
                    "indices" : 3,
                    "material" : 0
                }
            ]
        },
        {
            "name" : "Drug",
            "primitives" : [
                {
                    "attributes" : {
                        "POSITION" : 4,
                        "NORMAL" : 5,
                        "TEXCOORD_0" : 6
                    },
                    "indices" : 7,
                    "material" : 1
                }
            ]
        }
    ],
    "accessors" : [
        {
            "bufferView" : 0,
            "componentType" : 5126,
            "count" : 4356,
            "max" : [
                53.606346130371094,
                47.5694465637207,
                22.212797164916992
            ],
            "min" : [
                -76.92816925048828,
                -37.102840423583984,
                -104.61444854736328
            ],
            "type" : "VEC3"
        },
        {
            "bufferView" : 1,
            "componentType" : 5126,
            "count" : 4356,
            "type" : "VEC3"
        },
        {
            "bufferView" : 2,
            "componentType" : 5126,
            "count" : 4356,
            "type" : "VEC2"
        },
        {
            "bufferView" : 3,
            "componentType" : 5123,
            "count" : 13134,
            "type" : "SCALAR"
        },
        {
            "bufferView" : 4,
            "componentType" : 5126,
            "count" : 60,
            "max" : [
                17.85919189453125,
                29.52908706665039,
                5.934380054473877
            ],
            "min" : [
                -17.859189987182617,
                -29.529085159301758,
                -2.568842649459839
            ],
            "type" : "VEC3"
        },
        {
            "bufferView" : 5,
            "componentType" : 5126,
            "count" : 60,
            "type" : "VEC3"
        },
        {
            "bufferView" : 6,
            "componentType" : 5126,
            "count" : 60,
            "type" : "VEC2"
        },
        {
            "bufferView" : 7,
            "componentType" : 5123,
            "count" : 279,
            "type" : "SCALAR"
        }
    ],
    "bufferViews" : [
        {
            "buffer" : 0,
            "byteLength" : 52272,
            "byteOffset" : 0
        },
        {
            "buffer" : 0,
            "byteLength" : 52272,
            "byteOffset" : 52272
        },
        {
            "buffer" : 0,
            "byteLength" : 34848,
            "byteOffset" : 104544
        },
        {
            "buffer" : 0,
            "byteLength" : 26268,
            "byteOffset" : 139392
        },
        {
            "buffer" : 0,
            "byteLength" : 720,
            "byteOffset" : 165660
        },
        {
            "buffer" : 0,
            "byteLength" : 720,
            "byteOffset" : 166380
        },
        {
            "buffer" : 0,
            "byteLength" : 480,
            "byteOffset" : 167100
        },
        {
            "buffer" : 0,
            "byteLength" : 558,
            "byteOffset" : 167580
        }
    ],
    "buffers" : [
        {
            "byteLength" : 168140,
            "uri" : "data:application/octet-stream;base64,"
        }
    ]
}
