{
    "asset" : {
        "generator" : "Khronos glTF Blender I/O v3.2.43",
        "version" : "2.0"
    },
    "scene" : 0,
    "scenes" : [
        {
            "name" : "Scene",
            "nodes" : [
                0,
                1,
                2
            ]
        }
    ],
    "nodes" : [
        {
            "mesh" : 0,
            "name" : "Carrier_Geo",
            "translation" : [
                0,
                0.00043195480247959495,
                0
            ]
        },
        {
            "mesh" : 1,
            "name" : "Large_Orange",
            "rotation" : [
                -0.46600228548049927,
                -0.43500927090644836,
                -0.5257468223571777,
                0.5632044076919556
            ],
            "scale" : [
                0.30000004172325134,
                0.30000004172325134,
                0.30000004172325134
            ],
            "translation" : [
                -80.69222259521484,
                4.0469560623168945,
                3.1485071182250977
            ]
        },
        {
            "mesh" : 2,
            "name" : "Linker_Geo"
        }
    ],
    "materials" : [
        {
            "doubleSided" : true,
            "emissiveFactor" : [
                0.0033725490793585777,
                0.3001568615436554,
                0.4300000071525574
            ],
            "name" : "Mat.001",
            "pbrMetallicRoughness" : {
                "baseColorFactor" : [
                    0.018908120691776276,
                    0.38676655292510986,
                    1,
                    1
                ],
                "metallicFactor" : 0,
                "roughnessFactor" : 0.7400000095367432
            }
        },
        {
            "doubleSided" : true,
            "name" : "Purple",
            "pbrMetallicRoughness" : {
                "baseColorFactor" : [
                    0.550000011920929,
                    0,
                    1,
                    1
                ],
                "metallicFactor" : 0,
                "roughnessFactor" : 0.5
            }
        },
        {
            "doubleSided" : true,
            "emissiveFactor" : [
                0.007519999984651804,
                0.225600004196167,
                0
            ],
            "name" : "Linker_Green.001",
            "pbrMetallicRoughness" : {
                "baseColorFactor" : [
                    0.2749090790748596,
                    0.5400000214576721,
                    0,
                    1
                ],
                "metallicFactor" : 0.49000000953674316,
                "roughnessFactor" : 0.49000000953674316
            }
        }
    ],
    "meshes" : [
        {
            "name" : "Carrier_Geo.001",
            "primitives" : [
                {
                    "attributes" : {
                        "POSITION" : 0,
                        "NORMAL" : 1,
                        "TEXCOORD_0" : 2
                    },
                    "indices" : 3,
                    "material" : 0
                }
            ]
        },
        {
            "name" : "Large_Orange",
            "primitives" : [
                {
                    "attributes" : {
                        "POSITION" : 4,
                        "NORMAL" : 5,
                        "TEXCOORD_0" : 6
                    },
                    "indices" : 7,
                    "material" : 1
                }
            ]
        },
        {
            "name" : "Linker_Geo.001",
            "primitives" : [
                {
                    "attributes" : {
                        "POSITION" : 8,
                        "NORMAL" : 9,
                        "TEXCOORD_0" : 10
                    },
                    "indices" : 11,
                    "material" : 2
                }
            ]
        }
    ],
    "accessors" : [
        {
            "bufferView" : 0,
            "componentType" : 5126,
            "count" : 19825,
            "max" : [
                41.274024963378906,
                67.26939392089844,
                68.25907135009766
            ],
            "min" : [
                -155.54983520507812,
                -38.41050720214844,
                -72.17825317382812
            ],
            "type" : "VEC3"
        },
        {
            "bufferView" : 1,
            "componentType" : 5126,
            "count" : 19825,
            "type" : "VEC3"
        },
        {
            "bufferView" : 2,
            "componentType" : 5126,
            "count" : 19825,
            "type" : "VEC2"
        },
        {
            "bufferView" : 3,
            "componentType" : 5123,
            "count" : 57486,
            "type" : "SCALAR"
        },
        {
            "bufferView" : 4,
            "componentType" : 5126,
            "count" : 1618,
            "max" : [
                38.28020477294922,
                206.71578979492188,
                4.676137924194336
            ],
            "min" : [
                -43.361228942871094,
                0.3126347064971924,
                -10.366394996643066
            ],
            "type" : "VEC3"
        },
        {
            "bufferView" : 5,
            "componentType" : 5126,
            "count" : 1618,
            "type" : "VEC3"
        },
        {
            "bufferView" : 6,
            "componentType" : 5126,
            "count" : 1618,
            "type" : "VEC2"
        },
        {
            "bufferView" : 7,
            "componentType" : 5123,
            "count" : 4812,
            "type" : "SCALAR"
        },
        {
            "bufferView" : 8,
            "componentType" : 5126,
            "count" : 1071,
            "max" : [
                1.787039875984192,
                3.5880990028381348,
                1.6523246765136719
            ],
            "min" : [
                -19.16482162475586,
                -1.8248698711395264,
                -1.877212405204773
            ],
            "type" : "VEC3"
        },
        {
            "bufferView" : 9,
            "componentType" : 5126,
            "count" : 1071,
            "type" : "VEC3"
        },
        {
            "bufferView" : 10,
            "componentType" : 5126,
            "count" : 1071,
            "type" : "VEC2"
        },
        {
            "bufferView" : 11,
            "componentType" : 5123,
            "count" : 5832,
            "type" : "SCALAR"
        }
    ],
    "bufferViews" : [
        {
            "buffer" : 0,
            "byteLength" : 237900,
            "byteOffset" : 0
        },
        {
            "buffer" : 0,
            "byteLength" : 237900,
            "byteOffset" : 237900
        },
        {
            "buffer" : 0,
            "byteLength" : 158600,
            "byteOffset" : 475800
        },
        {
            "buffer" : 0,
            "byteLength" : 114972,
            "byteOffset" : 634400
        },
        {
            "buffer" : 0,
            "byteLength" : 19416,
            "byteOffset" : 749372
        },
        {
            "buffer" : 0,
            "byteLength" : 19416,
            "byteOffset" : 768788
        },
        {
            "buffer" : 0,
            "byteLength" : 12944,
            "byteOffset" : 788204
        },
        {
            "buffer" : 0,
            "byteLength" : 9624,
            "byteOffset" : 801148
        },
        {
            "buffer" : 0,
            "byteLength" : 12852,
            "byteOffset" : 810772
        },
        {
            "buffer" : 0,
            "byteLength" : 12852,
            "byteOffset" : 823624
        },
        {
            "buffer" : 0,
            "byteLength" : 8568,
            "byteOffset" : 836476
        },
        {
            "buffer" : 0,
            "byteLength" : 11664,
            "byteOffset" : 845044
        }
    ],
    "buffers" : [
        {
            "byteLength" : 856708,
            "uri" : "data:application/octet-stream;base64,"
        }
    ]
}
