{
    "asset" : {
        "generator" : "Khronos glTF Blender I/O v3.2.43",
        "version" : "2.0"
    },
    "scene" : 0,
    "scenes" : [
        {
            "name" : "Scene",
            "nodes" : [
                0,
                1,
                2
            ]
        }
    ],
    "nodes" : [
        {
            "mesh" : 0,
            "name" : "Carrier_Geo",
            "translation" : [
                0,
                0.00043195480247959495,
                0
            ]
        },
        {
            "mesh" : 1,
            "name" : "Linker_Geo"
        },
        {
            "mesh" : 2,
            "name" : "Connect",
            "rotation" : [
                0,
                0,
                0.4644283950328827,
                0.8856106996536255
            ],
            "scale" : [
                0.08987615257501602,
                0.08987615257501602,
                0.08987616747617722
            ],
            "translation" : [
                -37.192543029785156,
                13.65893840789795,
                -0.46915584802627563
            ]
        }
    ],
    "materials" : [
        {
            "doubleSided" : true,
            "emissiveFactor" : [
                0.0033725490793585777,
                0.3001568615436554,
                0.4300000071525574
            ],
            "name" : "Mat.007",
            "pbrMetallicRoughness" : {
                "baseColorFactor" : [
                    0.018908120691776276,
                    0.38676655292510986,
                    1,
                    1
                ],
                "metallicFactor" : 0,
                "roughnessFactor" : 0.7400000095367432
            }
        },
        {
            "doubleSided" : true,
            "emissiveFactor" : [
                0.007519999984651804,
                0.225600004196167,
                0
            ],
            "name" : "Linker_Green.005",
            "pbrMetallicRoughness" : {
                "baseColorFactor" : [
                    0.2749090790748596,
                    0.5400000214576721,
                    0,
                    1
                ],
                "metallicFactor" : 0.49000000953674316,
                "roughnessFactor" : 0.49000000953674316
            }
        },
        {
            "doubleSided" : true,
            "name" : "Orange.001",
            "pbrMetallicRoughness" : {
                "baseColorFactor" : [
                    1,
                    0.6666666865348816,
                    0,
                    1
                ],
                "metallicFactor" : 0,
                "roughnessFactor" : 0.5
            }
        }
    ],
    "meshes" : [
        {
            "name" : "Carrier_Geo.010",
            "primitives" : [
                {
                    "attributes" : {
                        "POSITION" : 0,
                        "NORMAL" : 1,
                        "TEXCOORD_0" : 2
                    },
                    "indices" : 3,
                    "material" : 0
                }
            ]
        },
        {
            "name" : "Linker_Geo.007",
            "primitives" : [
                {
                    "attributes" : {
                        "POSITION" : 4,
                        "NORMAL" : 5,
                        "TEXCOORD_0" : 6
                    },
                    "indices" : 7,
                    "material" : 1
                }
            ]
        },
        {
            "name" : "Connect.001",
            "primitives" : [
                {
                    "attributes" : {
                        "POSITION" : 8,
                        "NORMAL" : 9,
                        "TEXCOORD_0" : 10
                    },
                    "indices" : 11,
                    "material" : 2
                }
            ]
        }
    ],
    "accessors" : [
        {
            "bufferView" : 0,
            "componentType" : 5126,
            "count" : 19825,
            "max" : [
                41.274024963378906,
                67.26939392089844,
                68.25907135009766
            ],
            "min" : [
                -155.54983520507812,
                -38.41050720214844,
                -72.17825317382812
            ],
            "type" : "VEC3"
        },
        {
            "bufferView" : 1,
            "componentType" : 5126,
            "count" : 19825,
            "type" : "VEC3"
        },
        {
            "bufferView" : 2,
            "componentType" : 5126,
            "count" : 19825,
            "type" : "VEC2"
        },
        {
            "bufferView" : 3,
            "componentType" : 5123,
            "count" : 57486,
            "type" : "SCALAR"
        },
        {
            "bufferView" : 4,
            "componentType" : 5126,
            "count" : 1071,
            "max" : [
                1.787039875984192,
                3.5880990028381348,
                1.6523246765136719
            ],
            "min" : [
                -19.16482162475586,
                -1.8248698711395264,
                -1.877212405204773
            ],
            "type" : "VEC3"
        },
        {
            "bufferView" : 5,
            "componentType" : 5126,
            "count" : 1071,
            "type" : "VEC3"
        },
        {
            "bufferView" : 6,
            "componentType" : 5126,
            "count" : 1071,
            "type" : "VEC2"
        },
        {
            "bufferView" : 7,
            "componentType" : 5123,
            "count" : 5832,
            "type" : "SCALAR"
        },
        {
            "bufferView" : 8,
            "componentType" : 5126,
            "count" : 1684,
            "max" : [
                53.63134765625,
                349.69781494140625,
                63.22036361694336
            ],
            "min" : [
                -31.881919860839844,
                -233.13616943359375,
                -24.999223709106445
            ],
            "type" : "VEC3"
        },
        {
            "bufferView" : 9,
            "componentType" : 5126,
            "count" : 1684,
            "type" : "VEC3"
        },
        {
            "bufferView" : 10,
            "componentType" : 5126,
            "count" : 1684,
            "type" : "VEC2"
        },
        {
            "bufferView" : 11,
            "componentType" : 5123,
            "count" : 5940,
            "type" : "SCALAR"
        }
    ],
    "bufferViews" : [
        {
            "buffer" : 0,
            "byteLength" : 237900,
            "byteOffset" : 0
        },
        {
            "buffer" : 0,
            "byteLength" : 237900,
            "byteOffset" : 237900
        },
        {
            "buffer" : 0,
            "byteLength" : 158600,
            "byteOffset" : 475800
        },
        {
            "buffer" : 0,
            "byteLength" : 114972,
            "byteOffset" : 634400
        },
        {
            "buffer" : 0,
            "byteLength" : 12852,
            "byteOffset" : 749372
        },
        {
            "buffer" : 0,
            "byteLength" : 12852,
            "byteOffset" : 762224
        },
        {
            "buffer" : 0,
            "byteLength" : 8568,
            "byteOffset" : 775076
        },
        {
            "buffer" : 0,
            "byteLength" : 11664,
            "byteOffset" : 783644
        },
        {
            "buffer" : 0,
            "byteLength" : 20208,
            "byteOffset" : 795308
        },
        {
            "buffer" : 0,
            "byteLength" : 20208,
            "byteOffset" : 815516
        },
        {
            "buffer" : 0,
            "byteLength" : 13472,
            "byteOffset" : 835724
        },
        {
            "buffer" : 0,
            "byteLength" : 11880,
            "byteOffset" : 849196
        }
    ],
    "buffers" : [
        {
            "byteLength" : 861076,
            "uri" : "TestA.bin"
        }
    ]
}
