{
    "asset" : {
        "generator" : "Khronos glTF Blender I/O v3.2.43",
        "version" : "2.0"
    },
    "scene" : 0,
    "scenes" : [
        {
            "name" : "Scene",
            "nodes" : [
                0,
                1,
                2
            ]
        }
    ],
    "nodes" : [
        {
            "mesh" : 0,
            "name" : "Carrier_Geo",
            "translation" : [
                0,
                0.00043195480247959495,
                0
            ]
        },
        {
            "mesh" : 1,
            "name" : "Drug_Geo"
        },
        {
            "mesh" : 2,
            "name" : "Linker_Geo"
        }
    ],
    "materials" : [
        {
            "doubleSided" : true,
            "emissiveFactor" : [
                0.0033725490793585777,
                0.3001568615436554,
                0.4300000071525574
            ],
            "name" : "Mat.001",
            "pbrMetallicRoughness" : {
                "baseColorFactor" : [
                    0.018908120691776276,
                    0.38676655292510986,
                    1,
                    1
                ],
                "metallicFactor" : 0,
                "roughnessFactor" : 0.7400000095367432
            }
        },
        {
            "doubleSided" : true,
            "emissiveFactor" : [
                0.10980392247438431,
                0.11078431457281113,
                0.10980392247438431
            ],
            "name" : "Drug_Red.001",
            "pbrMetallicRoughness" : {
                "baseColorFactor" : [
                    0.699999988079071,
                    0.699999988079071,
                    0.699999988079071,
                    1
                ],
                "metallicFactor" : 0,
                "roughnessFactor" : 0.5
            }
        },
        {
            "doubleSided" : true,
            "emissiveFactor" : [
                0.007519999984651804,
                0.225600004196167,
                0
            ],
            "name" : "Linker_Green.001",
            "pbrMetallicRoughness" : {
                "baseColorFactor" : [
                    0.2749090790748596,
                    0.5400000214576721,
                    0,
                    1
                ],
                "metallicFactor" : 0.49000000953674316,
                "roughnessFactor" : 0.49000000953674316
            }
        }
    ],
    "meshes" : [
        {
            "name" : "Carrier_Geo.001",
            "primitives" : [
                {
                    "attributes" : {
                        "POSITION" : 0,
                        "NORMAL" : 1,
                        "TEXCOORD_0" : 2
                    },
                    "indices" : 3,
                    "material" : 0
                }
            ]
        },
        {
            "name" : "Drug_Geo.001",
            "primitives" : [
                {
                    "attributes" : {
                        "POSITION" : 4,
                        "NORMAL" : 5,
                        "TEXCOORD_0" : 6
                    },
                    "indices" : 7,
                    "material" : 1
                }
            ]
        },
        {
            "name" : "Linker_Geo.001",
            "primitives" : [
                {
                    "attributes" : {
                        "POSITION" : 8,
                        "NORMAL" : 9,
                        "TEXCOORD_0" : 10
                    },
                    "indices" : 11,
                    "material" : 2
                }
            ]
        }
    ],
    "accessors" : [
        {
            "bufferView" : 0,
            "componentType" : 5126,
            "count" : 19817,
            "max" : [
                41.274024963378906,
                67.26939392089844,
                68.25907135009766
            ],
            "min" : [
                -155.54983520507812,
                -38.41050720214844,
                -72.17825317382812
            ],
            "type" : "VEC3"
        },
        {
            "bufferView" : 1,
            "componentType" : 5126,
            "count" : 19817,
            "type" : "VEC3"
        },
        {
            "bufferView" : 2,
            "componentType" : 5126,
            "count" : 19817,
            "type" : "VEC2"
        },
        {
            "bufferView" : 3,
            "componentType" : 5123,
            "count" : 57486,
            "type" : "SCALAR"
        },
        {
            "bufferView" : 4,
            "componentType" : 5126,
            "count" : 38304,
            "max" : [
                -4.303072929382324,
                42.16157531738281,
                17.480606079101562
            ],
            "min" : [
                -39.950992584228516,
                -21.202375411987305,
                -8.281096458435059
            ],
            "type" : "VEC3"
        },
        {
            "bufferView" : 5,
            "componentType" : 5126,
            "count" : 38304,
            "type" : "VEC3"
        },
        {
            "bufferView" : 6,
            "componentType" : 5126,
            "count" : 38304,
            "type" : "VEC2"
        },
        {
            "bufferView" : 7,
            "componentType" : 5123,
            "count" : 129276,
            "type" : "SCALAR"
        },
        {
            "bufferView" : 8,
            "componentType" : 5126,
            "count" : 1071,
            "max" : [
                1.787039875984192,
                3.5880990028381348,
                1.6523246765136719
            ],
            "min" : [
                -19.16482162475586,
                -1.8248698711395264,
                -1.877212405204773
            ],
            "type" : "VEC3"
        },
        {
            "bufferView" : 9,
            "componentType" : 5126,
            "count" : 1071,
            "type" : "VEC3"
        },
        {
            "bufferView" : 10,
            "componentType" : 5126,
            "count" : 1071,
            "type" : "VEC2"
        },
        {
            "bufferView" : 11,
            "componentType" : 5123,
            "count" : 5832,
            "type" : "SCALAR"
        }
    ],
    "bufferViews" : [
        {
            "buffer" : 0,
            "byteLength" : 237804,
            "byteOffset" : 0
        },
        {
            "buffer" : 0,
            "byteLength" : 237804,
            "byteOffset" : 237804
        },
        {
            "buffer" : 0,
            "byteLength" : 158536,
            "byteOffset" : 475608
        },
        {
            "buffer" : 0,
            "byteLength" : 114972,
            "byteOffset" : 634144
        },
        {
            "buffer" : 0,
            "byteLength" : 459648,
            "byteOffset" : 749116
        },
        {
            "buffer" : 0,
            "byteLength" : 459648,
            "byteOffset" : 1208764
        },
        {
            "buffer" : 0,
            "byteLength" : 306432,
            "byteOffset" : 1668412
        },
        {
            "buffer" : 0,
            "byteLength" : 258552,
            "byteOffset" : 1974844
        },
        {
            "buffer" : 0,
            "byteLength" : 12852,
            "byteOffset" : 2233396
        },
        {
            "buffer" : 0,
            "byteLength" : 12852,
            "byteOffset" : 2246248
        },
        {
            "buffer" : 0,
            "byteLength" : 8568,
            "byteOffset" : 2259100
        },
        {
            "buffer" : 0,
            "byteLength" : 11664,
            "byteOffset" : 2267668
        }
    ],
    "buffers" : [
        {
            "byteLength" : 2279332,
            "uri" : "data:application/octet-stream;base64,"
        }
    ]
}
